<?xml version="1.0" encoding="utf-8"?>
<!-- Generator: Adobe Illustrator 24.0.0, SVG Export Plug-In . SVG Version: 6.00 Build 0)  -->
<svg version="1.1" id="Layer_1" xmlns="http://www.w3.org/2000/svg" xmlns:xlink="http://www.w3.org/1999/xlink" x="0px" y="0px"
	 viewBox="0 0 184 152" style="enable-background:new 0 0 184 152;" xml:space="preserve">
<style type="text/css">
	.st0{fill-rule:evenodd;clip-rule:evenodd;fill:#F5F5F5;fill-opacity:0.8;}
	.st1{fill-rule:evenodd;clip-rule:evenodd;fill:#AEB8C2;}
	.st2{fill:none;}
	.st3{fill-rule:evenodd;clip-rule:evenodd;fill:#F5F5F7;}
	.st4{fill-rule:evenodd;clip-rule:evenodd;fill:#DCE0E6;}
</style>
<g transform="translate(24 31.67)">
	<ellipse class="st0" cx="67.8" cy="106.89" rx="67.8" ry="12.67"/>
	<path class="st1" d="M122.03,69.67L98.11,40.23C96.96,38.84,95.28,38,93.52,38H42.08c-1.77,0-3.44,0.84-4.59,2.22L13.56,69.67
		v15.38h108.47L122.03,69.67L122.03,69.67z"/>
	<path class="st2" d="M115.1,86.21L94.19,61.1c-1-1.21-2.51-1.87-4.05-1.87H45.28c-1.54,0-3.05,0.66-4.05,1.87L20.33,86.21v13.79
		h94.77C115.1,100.01,115.1,86.21,115.1,86.21z"/>
	<path class="st3" d="M33.83,0h67.93c2.21,0,4,1.79,4,4v93.34c0,2.21-1.79,4-4,4H33.83c-2.21,0-4-1.79-4-4V4
		C29.83,1.79,31.62,0,33.83,0z"/>
	<path class="st4" d="M42.68,9.95h50.24c1.1,0,2,0.9,2,2v24.96c0,1.1-0.9,2-2,2H42.68c-1.1,0-2-0.9-2-2V11.95
		C40.68,10.85,41.57,9.95,42.68,9.95z M42.94,49.77h49.71c1.25,0,2.26,1.01,2.26,2.26s-1.01,2.26-2.26,2.26H42.94
		c-1.25,0-2.26-1.01-2.26-2.26S41.69,49.77,42.94,49.77L42.94,49.77z M42.94,61.53h49.71c1.25,0,2.26,1.01,2.26,2.26
		s-1.01,2.26-2.26,2.26H42.94c-1.25,0-2.26-1.01-2.26-2.26S41.69,61.53,42.94,61.53z M121.81,105.03c-0.78,3.07-3.5,5.36-6.74,5.36
		H20.51c-3.24,0-5.96-2.29-6.73-5.36c-0.15-0.59-0.22-1.19-0.22-1.79V69.68h26.32c2.91,0,5.25,2.45,5.25,5.42v0.04
		c0,2.97,2.37,5.37,5.28,5.37h34.78c2.91,0,5.28-2.42,5.28-5.39V75.1c0-2.97,2.34-5.43,5.25-5.43h26.32v33.57
		C122.03,103.86,121.96,104.46,121.81,105.03z"/>
</g>
</svg>
