<svg version="1.1" id="Layer_1" xmlns="http://www.w3.org/2000/svg" xmlns:xlink="http://www.w3.org/1999/xlink" x="0px" y="0px"
	 viewBox="0 0 1920 1080" style="enable-background:new 0 0 1920 1080;" xml:space="preserve">

<rect x="-6.65" y="0" fill='white' class="st0" width="1926.65" height="1080"/>
<g>
	<g>
		<g>
			<path class="st1" fill='#54c313' d="M426.11,628.67c-36.27,0-52.71,36.72-52.71,67.58c0,22.08,10.81,41.45,36.49,41.45
				c19.37,0,34.69-14.87,37.84-31.99h35.37c-14.42,45.05-38.75,61.5-73.66,61.5c-45.73,0-71.41-25-71.41-70.96
				c0-52.04,33.56-97.31,87.85-97.31c37.39,0,65.1,20.72,64.43,59.7h-35.37C454.95,638.81,443.23,628.67,426.11,628.67z"/>
			<path class="st1" fill='#54c313' d="M559.47,602.76l-11.94,57.89h0.45c4.96-6.76,17.57-16.67,38.52-16.67c22.75,0,34.02,10.36,34.02,31.31
				c0,4.96-2.7,15.99-3.38,20.05l-14.42,68.26h-31.99l14.19-68.26c0.68-3.6,2.03-10.81,2.03-14.19c0-6.98-7.88-11.94-15.32-11.94
				c-19.15,0-29.06,16.22-32.66,32.44l-13.07,61.95h-31.76l33.34-160.84H559.47z"/>
			<path class="st1" fill='#54c313' d="M702.97,643.99c20.72,0,49.11,4.51,48.43,30.64c0,5.63-0.9,12.16-2.48,19.6l-10.36,46.86
				c-1.13,4.28-1.58,11.26-1.58,15.77c0,2.03,0.45,4.28,1.13,6.76h-31.99v-11.49c-8.79,9.91-22.08,14.42-35.59,14.42
				c-25.46,0-37.62-14.19-37.62-30.41c0-22.53,16.22-36.27,44.38-39.65c29.96-3.6,44.38-1.8,44.38-16.9
				c0-11.71-12.17-14.19-20.27-14.19c-11.49,0-21.62,5.41-23.65,17.12h-29.96C652.06,653.22,676.84,643.99,702.97,643.99z
				 M688.33,713.37c-11.94,1.13-23.65,4.51-23.65,18.92c0,8.79,8.33,13.07,17.57,13.07c19.82,0,26.36-13.74,29.96-26.36l3.15-11.26
				C707.25,712.47,697.56,712.69,688.33,713.37z"/>
			<path class="st1" fill='#54c313' d="M815.6,647.14l-4.73,20.95l0.45,0.45c7.21-16.22,22.98-24.55,40.1-24.55c3.38,0,6.53,0.23,9.91,0.68
				l-6.53,31.09c-4.5-0.9-9.01-2.03-13.52-2.03c-24.55,0-33.34,18.47-37.62,38.29l-10.81,51.59h-31.76l24.1-116.46H815.6z"/>
			<path class="st1" fill='#54c313' d="M890.39,807.53c-23.65,0-49.56-10.14-49.56-38.07h31.76c-0.68,11.94,10.81,16.67,20.95,16.67
				c20.5,0,25.68-17.8,32.44-40.32l-0.45-0.45c-8.33,11.04-18.92,16.44-31.99,16.44c-27.71,0-44.83-18.92-44.83-47.53
				c0-34.02,21.63-70.28,58.79-70.28c16.22,0,29.06,5.63,35.59,20.95h0.45l3.6-17.8h30.64l-23.2,110.38
				C946.71,792.44,928.91,807.53,890.39,807.53z M880.71,712.02c0,13.74,6.53,25.68,21.62,25.68c22.75,0,34.02-24.55,34.02-44.38
				c0-14.64-7.43-25.23-22.98-25.23C891.97,668.09,880.71,693.32,880.71,712.02z"/>
			<path class="st1" fill='#54c313' d="M1015.42,715.17v1.8v2.93c0,13.52,8.33,22.75,25.68,22.75c12.84,0,18.92-8.56,23.88-15.99h31.99
				c-10.14,26.36-26.81,39.87-60.37,39.87c-31.31,0-51.81-17.12-51.81-50.68c0-37.17,24.55-71.86,64.2-71.86
				c32.44,0,54.29,17.12,54.29,50.91c0,5.63-0.68,11.71-1.8,18.25h-85.83C1015.42,713.82,1015.42,714.5,1015.42,715.17z
				 M1050.78,668.09c-18.25,0-27.03,11.49-31.76,24.78h53.39C1072.41,680.93,1069.48,668.09,1050.78,668.09z"/>
			<path class="st1" fill='#54c313' d="M1274.93,602.76c32.44,0,52.26,6.98,52.26,37.62c0,18.25-11.26,34.92-30.19,37.39v0.45
				c15.32,4.28,23.88,17.12,23.88,32.66c0,34.92-29.29,52.71-61.5,52.71h-85.6l33.56-160.84H1274.93z M1257.81,736.12
				c16.22,0,27.71-8.79,27.71-25.91c0-16.9-15.32-18.25-27.93-18.25h-34.69l-9.46,44.15H1257.81z M1267.94,667.86
				c12.84,0,23.88-6.98,23.88-21.17c0-12.61-7.21-16.44-18.7-16.44h-37.39l-7.88,37.62H1267.94z"/>
			<path class="st1" fill='#54c313' d="M1406.26,643.99c31.99,0,54.29,15.99,54.29,49.33c0,41-25.46,73.21-67.8,73.21
				c-32.44,0-53.39-16.67-53.39-50.01C1339.35,676.88,1364.81,643.99,1406.26,643.99z M1394.32,742.65
				c23.88,0,34.24-29.06,34.24-48.88c0-15.54-6.31-25.68-23.43-25.68c-23.43,0-33.79,28.83-33.79,48.43
				C1371.34,730.26,1379.23,742.65,1394.32,742.65z"/>
			<path class="st1" fill='#54c313' d="M1571.38,763.6h-33.79l-16.9-38.29l-31.09,38.29h-36.04l53.84-62.4l-26.36-54.06h34.24l12.84,33.56
				l26.36-33.56h35.82l-48.43,55.87L1571.38,763.6z"/>
		</g>
		<g>
			<g>
				<path class="st1" fill='#54c313' d="M1322.57,208.04H953.63c-7.97,0-14.43,6.46-14.43,14.43v0c0,7.97,6.46,14.43,14.43,14.43h340.09
					c26.39,0,47.79,21.39,47.79,47.79v199.93c0,26.4-21.4,47.8-47.79,47.8H794.66c-7.96,0-14.42,6.45-14.42,14.42
					c0,3.98,1.61,7.59,4.23,10.2c2.6,2.61,6.21,4.22,10.19,4.22h527.91c26.39,0,47.79-21.39,47.79-47.79V255.83
					C1370.36,229.44,1348.97,208.04,1322.57,208.04z"/>
			</g>
			<path class="st1" fill='#54c313' d="M1383.13,443.13h-7.96c-15.37,0-27.83-12.46-27.83-27.83v-51.75c0-15.37,12.46-27.83,27.83-27.83h7.96
				c15.37,0,27.83,12.46,27.83,27.83v51.75C1410.95,430.68,1398.5,443.13,1383.13,443.13z"/>
			<rect x="1167.52" y="265.56" class="st1" fill='#54c313' width="52.99" height="242.02"/>
			<rect x="1246.28" y="265.56" class="st1" fill='#54c313' width="52.99" height="242.02"/>
			<path class="st1" fill='#54c313' d="M1025.13,265.56h-85.3c3.28,5.48,5.15,11.89,5.15,18.73c0,10.12-4.1,19.27-10.73,25.91
				c-6.63,6.63-15.79,10.73-25.91,10.73h-338.9c-13.14,0-23.8,10.66-23.8,23.81v1.55c0,13.15,10.66,23.81,23.8,23.81h305.39
				c20.22,0,37.29,16.54,37.16,36.76c-0.07,9.99-4.15,19.02-10.7,25.57c-6.6,6.61-15.73,10.7-25.82,10.7H633.71
				c-4.96,0-9.45,2.01-12.7,5.26c-3.28,3.28-5.3,7.83-5.26,12.85c0.08,9.94,8.49,17.81,18.42,17.81h11.4
				c19.16,0,35.58,11.8,42.37,28.53H997.1c-3.07-6.01-4.79-12.82-4.79-20.04c-0.01-24.48,19.8-44.27,44.31-44.27
				c24.37,0,44.2,19.84,44.21,44.18c0,7.25-1.73,14.09-4.8,20.13h19.41V335.87C1095.44,297.04,1063.96,265.56,1025.13,265.56z
				 M958.85,472.86l23.58-60.18c0,0,6.26-13.19-59.34-8.29l114.63-98.4c0,0-29.93,62.39-15.22,66.45l52.5,1.77L958.85,472.86z"/>
			<circle class="st1" fill='#54c313' cx="480.83" cy="343.6" r="24.35"/>
			<circle class="st1" fill='#54c313' cx="513.06" cy="461.75" r="21.3"/>
		</g>
	</g>
	<g>
		<path class="st1" fill='#54c313' d="M997.57,488.12c0-21.5,17.39-38.88,38.91-38.88c21.4,0,38.81,17.42,38.82,38.79
			c0.01,21.62-17.55,39.13-39.26,38.93C1014.82,526.78,997.57,509.49,997.57,488.12z M1065.18,488.14
			c0.02-15.87-12.86-28.77-28.72-28.78c-15.86-0.01-28.76,12.84-28.77,28.66c-0.02,15.9,12.82,28.81,28.66,28.83
			C1052.28,516.88,1065.17,504.04,1065.18,488.14z"/>
		<path class="st1" fill='#54c313' d="M1036.44,514.5c-14.55-0.01-26.36-11.83-26.35-26.38c0.01-14.6,11.83-26.42,26.38-26.4
			c14.61,0.02,26.39,11.81,26.38,26.41C1062.84,502.72,1051.04,514.51,1036.44,514.5z M1014,489.04c-0.56,4.03,3.48,13.1,6.76,15.12
			c0.92-0.89,1.9-1.76,2.78-2.71c1.75-1.89,2.92-4.11,3.23-6.68c0.2-1.67,0.25-3.37,0.34-5.05c0.04-0.87,0.01-1.74,0.01-2.69
			C1022.99,489.4,1018.56,489.72,1014,489.04z M1032.86,479.45c-4.23-2.42-6.7-6.11-8.43-10.45c-4.95,3.27-8.21,7.65-9.8,13.34
			c0.52,0.19,0.98,0.37,1.45,0.53c2.98,1.01,5.98,1.37,9.04,0.39C1027.86,482.4,1030.22,480.8,1032.86,479.45z M1026.04,508.14
			c5.3,2.66,10.73,3.23,16.44,1.74c-0.1-0.56-0.18-1.07-0.28-1.58c-0.72-3.63-2.3-6.76-5.41-8.92c-1.86-1.29-3.82-2.43-5.73-3.63
			c-0.03-0.02-0.07,0-0.17,0C1030.88,500.48,1028.95,504.47,1026.04,508.14z M1030.61,466.3c0.03,0.28,0.05,0.45,0.07,0.62
			c0.04,0.23,0.08,0.45,0.12,0.68c0.72,3.99,2.52,7.31,5.96,9.61c1.42,0.95,2.89,1.82,4.34,2.73c0.33,0.21,0.67,0.41,1.08,0.66
			c0.01-2.38,0.44-4.56,1.31-6.66c0.87-2.1,2.08-4,3.5-5.82C1041.7,465.45,1036.29,464.85,1030.61,466.3z M1052.39,472.1
			c-1.67,1.32-3.12,2.74-4.25,4.46c-1.08,1.65-1.76,3.46-1.93,5.43c-0.21,2.38-0.31,4.77-0.46,7.16c0.06,0.03,0.11,0.05,0.17,0.08
			c4.09-2.37,8.49-2.71,13.12-2.04C1058.7,481.29,1056.5,476.31,1052.39,472.1z M1048.61,507.15c4.92-3.28,8.14-7.67,9.71-13.32
			c-0.47-0.18-0.88-0.33-1.29-0.48c-3.74-1.32-7.45-1.42-11.08,0.37c-1.7,0.84-3.36,1.76-5.04,2.65c-0.21,0.11-0.42,0.24-0.7,0.4
			C1044.39,499.15,1046.87,502.82,1048.61,507.15z M1033.62,488.09c-0.01,1.56,1.23,2.83,2.8,2.84c1.56,0.02,2.83-1.23,2.85-2.8
			c0.02-1.55-1.24-2.83-2.8-2.84C1034.9,485.28,1033.63,486.52,1033.62,488.09z M1031.76,493.26c-0.06,0.91,0.67,1.72,1.59,1.77
			c0.95,0.05,1.76-0.68,1.8-1.62c0.04-0.89-0.67-1.68-1.56-1.74C1032.62,491.61,1031.81,492.31,1031.76,493.26z M1033.46,484.55
			c0.92-0.01,1.68-0.78,1.68-1.69c0-0.94-0.8-1.7-1.74-1.68c-0.92,0.02-1.67,0.8-1.65,1.72
			C1031.77,483.82,1032.54,484.56,1033.46,484.55z M1042.46,489.8c0.92,0.04,1.7-0.69,1.75-1.61c0.05-0.94-0.7-1.75-1.65-1.77
			c-0.9-0.02-1.7,0.73-1.73,1.64C1040.8,488.96,1041.55,489.76,1042.46,489.8z M1041.18,482.9c0.02-0.94-0.7-1.7-1.64-1.72
			c-0.94-0.02-1.7,0.71-1.72,1.64c-0.02,0.94,0.71,1.7,1.65,1.72C1040.41,484.57,1041.16,483.84,1041.18,482.9z M1030.43,489.8
			c0.92-0.01,1.67-0.77,1.67-1.69c0-0.93-0.74-1.69-1.66-1.69c-0.94-0.01-1.72,0.78-1.71,1.72
			C1028.73,489.05,1029.52,489.81,1030.43,489.8z M1041.18,493.33c-0.01-0.93-0.76-1.67-1.69-1.66c-0.93,0.01-1.68,0.75-1.68,1.68
			c0,0.95,0.77,1.71,1.72,1.69C1040.47,495.02,1041.19,494.27,1041.18,493.33z"/>
	</g>
</g>
</svg>
